<svg xmlns="http://www.w3.org/2000/svg" viewBox="0 0 512 512">
<defs>
  <linearGradient id="g" x1="0" y1="0" x2="1" y2="1">
    <stop offset="0" stop-color="#56d63a"/>
    <stop offset=".45" stop-color="#00b4a6"/>
    <stop offset="1" stop-color="#0077cc"/>
  </linearGradient>
</defs>
<rect width="512" height="512" rx="118" fill="#f8fbff"/>
<rect x="72" y="112" width="368" height="310" rx="74" fill="url(#g)"/>
<path d="M183 121V88c0-29 23-52 52-52h42c29 0 52 23 52 52v33" fill="none" stroke="#087b71" stroke-width="28" stroke-linecap="round"/>
<rect x="220" y="178" width="72" height="178" rx="16" fill="#fff"/>
<rect x="167" y="231" width="178" height="72" rx="16" fill="#fff"/>
<path d="M207 272h28l13-38 22 77 18-39h31" fill="none" stroke="#008f83" stroke-width="12" stroke-linecap="round" stroke-linejoin="round"/>
<g transform="rotate(-35 391 377)">
  <rect x="326" y="349" width="130" height="57" rx="28.5" fill="#fff"/>
  <path d="M391 349h36a28.5 28.5 0 010 57h-36z" fill="#56d63a"/>
</g>
</svg>