<svg xmlns="http://www.w3.org/2000/svg" style="display:none">
  <symbol id="icon-home" viewBox="0 0 24 24"><path d="M3 11.5 12 4l9 7.5"/><path d="M5 10.5V21h14V10.5"/><path d="M9 21v-6h6v6"/></symbol>
  <symbol id="icon-pill" viewBox="0 0 24 24"><path d="M8.5 4.5a5 5 0 0 1 7 0l4 4a5 5 0 0 1-7 7l-4-4a5 5 0 0 1 0-7Z"/><path d="m7 13 6-6"/></symbol>
  <symbol id="icon-calendar" viewBox="0 0 24 24"><rect x="3" y="5" width="18" height="16" rx="2"/><path d="M16 3v4M8 3v4M3 10h18"/></symbol>
  <symbol id="icon-heart" viewBox="0 0 24 24"><path d="M20.8 4.6a5.5 5.5 0 0 0-7.8 0L12 5.7l-1.1-1.1a5.5 5.5 0 0 0-7.8 7.8L12 21l8.8-8.6a5.5 5.5 0 0 0 0-7.8Z"/></symbol>
  <symbol id="icon-box" viewBox="0 0 24 24"><path d="m3 7 9-4 9 4-9 4-9-4Z"/><path d="m3 7 9 4 9-4v10l-9 4-9-4V7Z"/><path d="M12 11v10"/></symbol>
  <symbol id="icon-menu" viewBox="0 0 24 24"><path d="M4 6h16M4 12h16M4 18h16"/></symbol>
  <symbol id="icon-settings" viewBox="0 0 24 24"><circle cx="12" cy="12" r="3"/><path d="M19.4 15a1.7 1.7 0 0 0 .3 1.9l.1.1-2.8 2.8-.1-.1a1.7 1.7 0 0 0-1.9-.3 1.7 1.7 0 0 0-1 1.6V21h-4v-.1a1.7 1.7 0 0 0-1-1.6 1.7 1.7 0 0 0-1.9.3l-.1.1L4.2 17l.1-.1a1.7 1.7 0 0 0 .3-1.9A1.7 1.7 0 0 0 3 14H3v-4h.1a1.7 1.7 0 0 0 1.6-1 1.7 1.7 0 0 0-.3-1.9L4.2 7 7 4.2l.1.1a1.7 1.7 0 0 0 1.9.3A1.7 1.7 0 0 0 10 3h4a1.7 1.7 0 0 0 1 1.6 1.7 1.7 0 0 0 1.9-.3l.1-.1L19.8 7l-.1.1a1.7 1.7 0 0 0-.3 1.9A1.7 1.7 0 0 0 21 10v4a1.7 1.7 0 0 0-1.6 1Z"/></symbol>
</svg>